<?xml version="1.0" encoding="UTF-8" standalone="no"?>
<!-- Created with Inkscape (http://www.inkscape.org/) -->

<svg
   xmlns:dc="http://purl.org/dc/elements/1.1/"
   xmlns:cc="http://creativecommons.org/ns#"
   xmlns:rdf="http://www.w3.org/1999/02/22-rdf-syntax-ns#"
   xmlns:svg="http://www.w3.org/2000/svg"
   xmlns="http://www.w3.org/2000/svg"
   xmlns:sodipodi="http://sodipodi.sourceforge.net/DTD/sodipodi-0.dtd"
   xmlns:inkscape="http://www.inkscape.org/namespaces/inkscape"
   version="1.1"
   id="svg2"
   width="469.14194"
   height="138.51201"
   viewBox="0 0 469.14194 138.51201"
   sodipodi:docname="Nintendo.svg"
   inkscape:version="0.92.3 (2405546, 2018-03-11)">
  <metadata
     id="metadata8">
    <rdf:RDF>
      <cc:Work
         rdf:about="">
        <dc:format>image/svg+xml</dc:format>
        <dc:type
           rdf:resource="http://purl.org/dc/dcmitype/StillImage" />
        <dc:title></dc:title>
        <cc:license
           rdf:resource="http://creativecommons.org/publicdomain/zero/1.0/" />
      </cc:Work>
      <cc:License
         rdf:about="http://creativecommons.org/publicdomain/zero/1.0/">
        <cc:permits
           rdf:resource="http://creativecommons.org/ns#Reproduction" />
        <cc:permits
           rdf:resource="http://creativecommons.org/ns#Distribution" />
        <cc:permits
           rdf:resource="http://creativecommons.org/ns#DerivativeWorks" />
      </cc:License>
    </rdf:RDF>
  </metadata>
  <defs
     id="defs6" />
  <sodipodi:namedview
     pagecolor="#ffffff"
     bordercolor="#666666"
     borderopacity="1"
     objecttolerance="10"
     gridtolerance="10"
     guidetolerance="10"
     inkscape:pageopacity="0"
     inkscape:pageshadow="2"
     inkscape:window-width="1366"
     inkscape:window-height="711"
     id="namedview4"
     showgrid="false"
     fit-margin-top="0"
     fit-margin-left="0"
     fit-margin-right="0"
     fit-margin-bottom="0"
     inkscape:zoom="1"
     inkscape:cx="114.97949"
     inkscape:cy="76.514545"
     inkscape:window-x="0"
     inkscape:window-y="0"
     inkscape:window-maximized="1"
     inkscape:current-layer="svg2" />
  <path
     style="fill:#0a1d61;fill-opacity:1;stroke-width:1.33333337"
     d="m 116.48809,138.07811 c -0.39713,-0.39713 -13.56942,-0.75802 -29.271753,-0.80198 -15.70234,-0.044 -29.920577,-0.4116 -31.596097,-0.817 -2.9454,-0.71264 -3.03381,-1.1629 -2.66667,-13.58088 l 0.37973,-12.84382 16.904117,-0.15388 c 9.29726,-0.0846 17.87609,-0.52687 19.06407,-0.98274 1.7361,-0.66621 2.08197,-2.46753 1.76255,-9.179445 l -0.3974,-8.35059 -15.33333,-0.32793 C 52.31263,90.547515 53.99997,91.733305 53.99997,76.047733 v -13.26923 l 17.666667,-0.37203 17.66667,-0.37203 v -9.33334 -9.33333 l -17.33334,-0.66667 -17.333327,-0.66666 -1.06302,-11.87032 c -0.58466,-6.52867 -0.5466,-12.38673 0.0846,-13.01792 0.63118,-0.63118 8.009537,-1.41489 16.396347,-1.74157 17.67724,-0.68857 38.100683,-5.18368 52.946513,-11.6532905 8.53284,-3.71849398 9.93322,-3.99067798 11.65801,-2.265893 1.53468,1.534683 1.67267,2.963033 0.63557,6.579153 -0.72857,2.5403905 -1.32468,8.0590305 -1.32468,12.2636305 0,6.46331 -0.46362,7.94499 -3,9.58763 -3.59757,2.32991 -15.96378,6.89173 -22.01109,8.11977 -5.54308,1.12564 -6.99384,3.95236 -6.96849,13.57782 0.0309,11.75581 -0.0305,11.71768 18.92045,11.73733 l 16.39247,0.017 0.37997,13.66666 0.37999,13.666672 h -16.68791 -16.68792 l -0.86033,3.42788 c -0.89152,3.55206 0.23145,15.110305 1.59986,16.466745 0.42838,0.42462 7.57403,0.77204 15.87924,0.77204 8.30522,0 15.51808,0.41593 16.02859,0.92429 0.51052,0.50836 1.01228,6.50836 1.11503,13.33333 l 0.18681,12.40904 -10.72824,0.38287 c -5.90055,0.21057 -11.05317,0.058 -11.45031,-0.33919 z m 56.79296,-1.0324 c -0.3942,-1.02726 -0.5437,-7.82505 -0.33224,-15.10618 l 0.3845,-13.23843 8.66666,-0.86572 c 21.19278,-2.11697 45.33334,-15.845815 45.33334,-25.781277 0,-2.03163 -2.42428,-2.19515 -26.59975,-1.79418 -16.59171,0.27519 -27.07603,-0.0605 -27.8656,-0.89215 -0.72535,-0.76401 -0.96157,-6.87337 -0.55324,-14.30783 l 0.7126,-12.9745 28.81967,-0.35884 28.81965,-0.35883 v -7.33333 -7.33334 l -28.37647,-0.35997 c -32.92752,-0.41771 -29.95149,1.2041 -31.52216,-17.1783 -0.7107,-8.31796 -0.51852,-11.1329705 0.8182,-11.9843405 2.46514,-1.57008 126.68967,-3.00898 128.67483,-1.49045 1.11483,0.85279 1.21509,2.21727 0.33333,4.5364805 -0.69358,1.82427 -1.26106,7.65779 -1.26106,12.96338 0,5.72508 -0.65043,10.29696 -1.6,11.24654 -1.13086,1.13085 -8.94251,1.6 -26.64127,1.6 h -25.04127 l -0.78424,3.12471 c -0.43134,1.71858 -0.25509,5.16858 0.39167,7.66666 l 1.17592,4.54196 25.56473,0.36206 c 29.68827,0.42046 27.33259,-1.07934 26.66312,16.97575 l -0.39533,10.66219 -23.2244,0.66667 c -15.50943,0.4452 -23.39015,1.16609 -23.72336,2.1701 -0.27444,0.82689 2.23604,3.910902 5.57884,6.853342 6.32076,5.56377 18.17136,10.68149 31.71801,13.697525 4.22532,0.94073 8.20146,2.36336 8.83583,3.16139 1.82308,2.29341 2.68771,28.7551 0.94553,28.93783 -5.93117,0.62214 -26.71718,-6.92862 -35.27097,-12.8126 -3.48243,-2.39548 -10.14553,-8.32716 -14.80692,-13.18151 -4.66139,-4.85435 -8.90665,-8.82609 -9.43393,-8.82609 -0.52728,0 -3.75762,3.39984 -7.17852,7.55518 -10.48228,12.73273 -24.28763,21.5996 -42.77344,27.47244 -11.25136,3.57449 -15.25208,4.06888 -16.05226,1.98366 z m 160.01158,10e-4 c -0.34823,-0.92345 -0.17964,-5.27901 0.37461,-9.67901 l 1.00776,-8 28.66248,-0.6666 c 24.29259,-0.56503 28.66249,-0.97159 28.66249,-2.66667 0,-1.65537 -2.97189,-2.06462 -17.24693,-2.37501 -9.92735,-0.21586 -17.99093,-0.99248 -19,-1.82993 -1.91028,-1.58539 -2.38304,-12.738635 -0.65529,-15.459555 0.71206,-1.1214 6.9925,-1.94916 19.24838,-2.53694 13.99544,-0.67121 18.36112,-1.31456 18.92699,-2.78916 1.60912,-4.1933 -0.83253,-4.74304 -17.80655,-4.00911 -9.23996,0.39952 -17.54993,0.4379 -18.4666,0.0853 -1.21422,-0.46708 -1.66666,-5.316382 -1.66666,-17.863342 0,-16.95189 0.0471,-17.22325 3,-17.28738 1.65,-0.0358 18,-0.46887 36.33333,-0.96228 18.33333,-0.49341 37.83333,-0.91408 43.33333,-0.93483 l 10,-0.0377 0.7742,16.66664 c 0.45559,9.80751 0.25122,17.35258 -0.49658,18.333332 -0.90334,1.18473 -6.35147,1.66667 -18.84087,1.66667 -17.58655,0 -20.77008,0.76465 -20.77008,4.98874 0,1.42305 3.98817,1.75082 19.50757,1.60324 15.06491,-0.14326 19.7669,0.22369 20.64626,1.61126 0.62626,0.98822 1.14786,4.96161 1.15909,8.829755 0.026,8.98156 -0.7852,9.3137 -23.31999,9.54739 -9.45785,0.0981 -17.4495,0.43174 -17.75924,0.74147 -0.30972,0.30972 -0.20784,1.48901 0.22642,2.62063 0.67842,1.76798 4.90757,2.05751 30.0536,2.05751 18.29702,0 29.43062,0.499 29.70852,1.33151 0.24444,0.73233 0.14444,5.08233 -0.22223,9.66666 l -0.66667,8.33516 -67.0371,0.34568 c -52.92256,0.27291 -67.17042,-0.008 -67.67024,-1.33333 z m 96.65528,-65.868597 c 4.97969,-0.99594 6.76944,-4.16749 3.64217,-6.4542 -2.2368,-1.63559 -29.48027,-1.59514 -52.52144,0.078 -10.69279,0.77644 -15.03781,2.71301 -13.10476,5.84075 0.95144,1.53947 54.64481,2.00333 61.98403,0.53549 z M 23.92685,135.91613 c -0.49344,-0.7984 -0.45876,-14.5984 0.0771,-30.66667 0.56267,-16.873245 0.4738,-29.215017 -0.21037,-29.215017 -0.65152,0 -5.3444,6.3 -10.42862,13.999992 -5.08422,7.7 -9.68081,13.999995 -10.21465,13.999995 -1.88448,0 -2.32966,-4.928015 -2.73788,-30.307477 L 0,48.086123 3.33333,45.753213 c 11.87579,-8.31155 19.93186,-19.90669 23.42714,-33.71877 1.20625,-4.7666705 2.80207,-9.4166705 3.54628,-10.3333385 1.93336,-2.38139198 17.57705,-2.21652798 19.58793,0.206428 1.21769,1.46723 -0.0111,6.59544 -5.67055,23.6666705 l -7.22509,21.79357 0.95602,44.000002 c 0.5258,24.199995 0.71561,44.449995 0.42179,44.999995 -0.83616,1.56518 -13.44711,1.17102 -14.44997,-0.45164 z M 335.31968,85.701105 c -0.008,-0.55 -0.19992,-14.965572 -0.4276,-32.034602 l -0.41397,-31.0346 3.19198,-0.80113 c 1.7556,-0.44063 7.70015,-0.51183 13.21011,-0.15822 7.68207,0.493 10.18075,0.21912 10.71555,-1.17456 0.79474,-2.07107 -2.77372,-8.03711 -6.71722,-11.2303605 -5.07088,-4.10615 -2.05341,-6.08753 10.63436,-6.98292 14.28343,-1.007997 16.25004,-0.023 20.40796,10.2214605 4.83682,11.91712 8.74579,11.11034 8.74579,-1.80507 V 3.3677725 l 6.53767,-0.41473 c 3.7724,-0.23932 6.9222,0.20743 7.44676,1.0562 0.5,0.80901 0.48154,4.28811 -0.0411,7.7313205 -2.02136,13.31927 3.07131,12.74529 10.10708,-1.13913 1.80357,-3.5591805 4.4406,-7.0927905 5.86004,-7.8524505 1.41951,-0.75967 8.03915,-1.381211 14.71037,-1.381211 15.36156,0 16.60984,1.679521 7.32238,9.8520615 -4.54776,4.00183 -6.17079,6.29842 -5.56564,7.8754 0.63806,1.66276 1.85201,2.02662 4.79665,1.43769 2.16832,-0.43366 8.29809,-0.87323 13.62173,-0.97681 l 9.67935,-0.18834 -0.49196,26.66667 c -0.47037,25.49736 -0.69527,33.17216 -1.12321,38.33333 -0.1434,1.729412 -1.37311,2.333332 -4.7511,2.333332 -8.97172,0 -8.77572,0.49548 -8.77572,-22.184502 0,-15.23351 -0.43213,-20.72643 -1.66666,-21.18515 -0.91664,-0.34061 -24.46664,-0.17178 -52.33331,0.37518 l -50.66666,0.99447 -0.90534,19.12503 c -0.49792,10.51877 -1.22909,19.96877 -1.62481,21 -0.74932,1.952702 -11.45767,2.768612 -11.48348,0.874972 z"
     id="path817"
     inkscape:connector-curvature="0" />
</svg>
